<?xml version="1.0" encoding="UTF-8" standalone="no"?>
<svg
   width="64"
   height="64"
   viewBox="0 0 63.999997 64"
   id="svg4160"
   version="1.1"
   sodipodi:docname="klipper.svg"
   inkscape:version="1.2.1 (9c6d41e410, 2022-07-14)"
   xml:space="preserve"
   xmlns:inkscape="http://www.inkscape.org/namespaces/inkscape"
   xmlns:sodipodi="http://sodipodi.sourceforge.net/DTD/sodipodi-0.dtd"
   xmlns="http://www.w3.org/2000/svg"
   xmlns:svg="http://www.w3.org/2000/svg"
   xmlns:rdf="http://www.w3.org/1999/02/22-rdf-syntax-ns#"
   xmlns:cc="http://creativecommons.org/ns#"
   xmlns:dc="http://purl.org/dc/elements/1.1/"><sodipodi:namedview
     pagecolor="#ffffff"
     bordercolor="#666666"
     borderopacity="1"
     objecttolerance="10"
     gridtolerance="10"
     guidetolerance="10"
     inkscape:pageopacity="0"
     inkscape:pageshadow="2"
     inkscape:window-width="3822"
     inkscape:window-height="2053"
     id="namedview8"
     showgrid="false"
     inkscape:zoom="18.90625"
     inkscape:cx="23.431405"
     inkscape:cy="22.479339"
     inkscape:window-x="94"
     inkscape:window-y="6"
     inkscape:window-maximized="0"
     inkscape:current-layer="layer1"
     inkscape:document-rotation="0"
     inkscape:pagecheckerboard="true"
     inkscape:snap-bbox="true"
     inkscape:bbox-paths="true"
     inkscape:bbox-nodes="true"
     inkscape:snap-bbox-edge-midpoints="true"
     inkscape:snap-bbox-midpoints="true"
     inkscape:showpageshadow="0"
     inkscape:deskcolor="#d1d1d1"><inkscape:grid
       type="xygrid"
       id="grid832" /></sodipodi:namedview><defs
     id="defs4162" /><metadata
     id="metadata4165"><rdf:RDF><cc:Work
         rdf:about=""><dc:format>image/svg+xml</dc:format><dc:type
           rdf:resource="http://purl.org/dc/dcmitype/StillImage" /></cc:Work></rdf:RDF></metadata><g
     id="layer2"
     style="display:inline;stroke:none"
     transform="matrix(0.71900857,0,0,0.71900857,26.687632,-26.569516)"><g
       id="g992"
       transform="matrix(0.49712845,0,0,0.48892867,19.610049,34.098643)"
       style="stroke-width:0.991719"><path
         id="path884"
         style="display:inline;fill:#3c4b5a;fill-opacity:1;stroke:none;stroke-width:0.991717px;stroke-linecap:butt;stroke-linejoin:miter;stroke-opacity:1"
         d="m 17.884611,38.675201 h -2.604329 l -4.530847,4.657666 v 1.842118 1.842117 l 4.530847,4.658099 h 2.604329 v -0.995073 l -5.335476,-5.505143 5.335476,-5.504712 z" /><path
         id="path891"
         style="display:inline;fill:#b12f35;fill-opacity:1;stroke:none;stroke-width:0.991717px;stroke-linecap:butt;stroke-linejoin:miter;stroke-opacity:1"
         d="M 14.351562,40.939453 8.3183594,46.929688 H 7.2167969 v 0.509765 0.507813 H 8.3183594 L 14.351562,53.9375 v -0.994141 l -5.335937,-5.503906 5.335937,-5.505859 z m -7.1347651,7.007813 -0.017578,-2.808594 c -0.0012,-0.183583 -0.1484453,-0.332031 -0.3320313,-0.332031 -0.183586,0 -0.3339844,0.148445 -0.3339844,0.332031 v 2.53125 c 0,0.183587 0.1625144,0.288692 0.3339844,0.277344 z"
         transform="translate(3.5328446,-2.2636422)" /><path
         style="color:#000000;font-style:normal;font-variant:normal;font-weight:normal;font-stretch:normal;font-size:medium;line-height:normal;font-family:sans-serif;font-variant-ligatures:normal;font-variant-position:normal;font-variant-caps:normal;font-variant-numeric:normal;font-variant-alternates:normal;font-variant-east-asian:normal;font-feature-settings:normal;font-variation-settings:normal;text-indent:0;text-align:start;text-decoration:none;text-decoration-line:none;text-decoration-style:solid;text-decoration-color:#000000;letter-spacing:normal;word-spacing:normal;text-transform:none;writing-mode:lr-tb;direction:ltr;text-orientation:mixed;dominant-baseline:auto;baseline-shift:baseline;text-anchor:start;white-space:normal;shape-padding:0;shape-margin:0;inline-size:0;clip-rule:nonzero;display:inline;overflow:visible;visibility:visible;isolation:auto;mix-blend-mode:normal;color-interpolation:sRGB;color-interpolation-filters:linearRGB;solid-color:#000000;solid-opacity:1;vector-effect:none;fill:#b12f35;fill-opacity:1;fill-rule:nonzero;stroke:none;stroke-width:2.97516;stroke-linecap:round;stroke-linejoin:miter;stroke-miterlimit:4;stroke-dasharray:none;stroke-dashoffset:0;stroke-opacity:1;color-rendering:auto;image-rendering:auto;shape-rendering:auto;text-rendering:auto;enable-background:accumulate;stop-color:#000000"
         d="m 10.399111,42.875586 v 2.530253"
         id="path899" /><rect
         style="font-variation-settings:normal;opacity:0.998;vector-effect:none;fill:#3c4b5a;fill-opacity:1;stroke:#b12f35;stroke-width:0;stroke-linecap:round;stroke-linejoin:round;stroke-miterlimit:4;stroke-dasharray:none;stroke-dashoffset:0;stroke-opacity:1;stop-color:#000000"
         id="rect903"
         width="2.9999986"
         height="13"
         x="7.0660486"
         y="38.674835"
         ry="0" /></g><path
       id="path936"
       style="display:inline;fill:#3c4b5a;fill-opacity:1;stroke:none;stroke-width:0.488929px;stroke-linecap:butt;stroke-linejoin:miter;stroke-opacity:1"
       d="m 23.031721,37.413786 v 5.656466 l 10.116209,9.840765 h 4.000984 4.000984 L 51.267046,43.070252 V 37.413786 H 49.105801 L 37.148914,49.002162 25.192967,37.413786 Z" /><path
       id="path938"
       style="display:inline;fill:#b12f35;fill-opacity:1;stroke:none;stroke-width:0.488929px;stroke-linecap:butt;stroke-linejoin:miter;stroke-opacity:1"
       d="m 23.032064,37.413727 13.012951,13.105581 v 2.392121 h 1.103909 1.103909 V 50.519308 L 51.265785,37.413727 H 49.104758 L 37.148924,49.00191 25.19309,37.413727 Z m 15.220769,15.497702 -6.098239,0.0382 c -0.398732,0.0025 -0.721933,0.323195 -0.721933,0.721934 0,0.39874 0.323194,0.721933 0.721933,0.721933 h 5.495673 c 0.39874,0 0.627214,-0.349509 0.602566,-0.721933 z" /><path
       style="color:#000000;font-style:normal;font-variant:normal;font-weight:normal;font-stretch:normal;font-size:medium;line-height:normal;font-family:sans-serif;font-variant-ligatures:normal;font-variant-position:normal;font-variant-caps:normal;font-variant-numeric:normal;font-variant-alternates:normal;font-variant-east-asian:normal;font-feature-settings:normal;font-variation-settings:normal;text-indent:0;text-align:start;text-decoration:none;text-decoration-line:none;text-decoration-style:solid;text-decoration-color:#000000;letter-spacing:normal;word-spacing:normal;text-transform:none;writing-mode:lr-tb;direction:ltr;text-orientation:mixed;dominant-baseline:auto;baseline-shift:baseline;text-anchor:start;white-space:normal;shape-padding:0;shape-margin:0;inline-size:0;clip-rule:nonzero;display:inline;overflow:visible;visibility:visible;isolation:auto;mix-blend-mode:normal;color-interpolation:sRGB;color-interpolation-filters:linearRGB;solid-color:#000000;solid-opacity:1;vector-effect:none;fill:#b12f35;fill-opacity:1;fill-rule:nonzero;stroke:none;stroke-width:1.46678;stroke-linecap:round;stroke-linejoin:miter;stroke-miterlimit:4;stroke-dasharray:none;stroke-dashoffset:0;stroke-opacity:1;color-rendering:auto;image-rendering:auto;shape-rendering:auto;text-rendering:auto;enable-background:accumulate;stop-color:#000000"
       d="m 32.15474,53.671903 h 5.495577"
       id="path942" /><rect
       style="opacity:0.998;vector-effect:none;fill:#3c4c5b;fill-opacity:0.988235;stroke:#b12f35;stroke-width:0;stroke-linecap:round;stroke-linejoin:round;stroke-miterlimit:4;stroke-dasharray:none;stroke-dashoffset:0;stroke-opacity:1;stop-color:#000000;stop-opacity:1"
       id="rect974"
       width="0.97785687"
       height="6.3560724"
       x="29.23439"
       y="53.007877" /><rect
       style="opacity:0.998;vector-effect:none;fill:#3c4c5b;fill-opacity:0.988235;stroke:#b12f35;stroke-width:0;stroke-linecap:round;stroke-linejoin:round;stroke-miterlimit:4;stroke-dasharray:none;stroke-dashoffset:0;stroke-opacity:1;stop-color:#000000;stop-opacity:1"
       id="rect976"
       width="0.97785687"
       height="4.4003577"
       x="31.679035"
       y="54.963593" /><g
       id="g996"
       transform="matrix(0.48892867,0,0,0.48892867,19.571892,34.177546)"><rect
         style="opacity:0.998;vector-effect:none;fill:#3c4c5b;fill-opacity:0.988235;stroke:#b12f35;stroke-width:0;stroke-linecap:round;stroke-linejoin:round;stroke-miterlimit:4;stroke-dasharray:none;stroke-dashoffset:0;stroke-opacity:1;stop-color:#000000;stop-opacity:1"
         id="rect978"
         width="1.999999"
         height="11.999999"
         x="28.762596"
         y="42.786873" /><path
         style="fill:none;stroke:#3c4c5b;stroke-width:2;stroke-linecap:butt;stroke-linejoin:miter;stroke-miterlimit:4;stroke-dasharray:none;stroke-opacity:1"
         d="m 29.661771,43.911565 c 8.563319,-2.794375 7.778383,9.908161 0,6.347107"
         id="path980"
         sodipodi:nodetypes="cc" /></g><g
       id="g1000"
       transform="matrix(0.48892867,0,0,0.48892867,19.571892,34.177546)"><rect
         style="opacity:0.998;vector-effect:none;fill:#3c4c5b;fill-opacity:0.988235;stroke:#b12f35;stroke-width:0;stroke-linecap:round;stroke-linejoin:round;stroke-miterlimit:4;stroke-dasharray:none;stroke-dashoffset:0;stroke-opacity:1;stop-color:#000000;stop-opacity:1"
         id="rect982"
         width="1.999999"
         height="11.999999"
         x="38.762596"
         y="42.786873" /><path
         style="fill:none;stroke:#3c4c5b;stroke-width:2;stroke-linecap:butt;stroke-linejoin:miter;stroke-miterlimit:4;stroke-dasharray:none;stroke-opacity:1"
         d="m 39.661771,43.911565 c 8.563319,-2.794375 7.778383,9.908161 0,6.347107"
         id="path984"
         sodipodi:nodetypes="cc" /></g><path
       style="fill:none;stroke:#3b4b5a;stroke-width:0.977857;stroke-linecap:butt;stroke-linejoin:miter;stroke-miterlimit:4;stroke-dasharray:none;stroke-opacity:0.996078"
       d="M 48.720422,59.326777 V 55.70628 c 0,0 0.594795,-0.504284 2.042994,-0.103443"
       id="path1006" /><path
       id="path1010"
       style="color:#000000;font-style:normal;font-variant:normal;font-weight:normal;font-stretch:normal;font-size:medium;line-height:normal;font-family:sans-serif;font-variant-ligatures:normal;font-variant-position:normal;font-variant-caps:normal;font-variant-numeric:normal;font-variant-alternates:normal;font-variant-east-asian:normal;font-feature-settings:normal;font-variation-settings:normal;text-indent:0;text-align:start;text-decoration:none;text-decoration-line:none;text-decoration-style:solid;text-decoration-color:#000000;letter-spacing:normal;word-spacing:normal;text-transform:none;writing-mode:lr-tb;direction:ltr;text-orientation:mixed;dominant-baseline:auto;baseline-shift:baseline;text-anchor:start;white-space:normal;shape-padding:0;shape-margin:0;inline-size:0;clip-rule:nonzero;display:inline;overflow:visible;visibility:visible;opacity:1;isolation:auto;mix-blend-mode:normal;color-interpolation:sRGB;color-interpolation-filters:linearRGB;solid-color:#000000;solid-opacity:1;vector-effect:none;fill:#3c4c5b;fill-opacity:1;fill-rule:nonzero;stroke:none;stroke-width:0.488929;stroke-linecap:butt;stroke-linejoin:miter;stroke-miterlimit:4;stroke-dasharray:none;stroke-dashoffset:0;stroke-opacity:1;color-rendering:auto;image-rendering:auto;shape-rendering:auto;text-rendering:auto;enable-background:accumulate;stop-color:#000000;stop-opacity:1"
       d="m 45.319381,54.823217 c -0.51231,-0.01744 -1.040945,0.16123 -1.431454,0.555774 -0.376436,0.380327 -0.596459,0.952538 -0.592061,1.638676 0,0 -0.122248,0.794363 0.320859,1.522172 0.221554,0.363905 0.609895,0.706592 1.16025,0.86231 0.550356,0.155718 1.24124,0.141193 2.128559,-0.09358 l -0.250194,-0.94539 c -0.774229,0.204855 -1.288282,0.189934 -1.611937,0.09836 -0.323655,-0.09157 -0.478087,-0.244087 -0.591107,-0.429722 -0.08942,-0.146881 -0.130524,-0.313137 -0.155655,-0.46601 h 2.977499 l 0.02101,-0.466965 c 0.06098,-1.356212 -0.951148,-2.240734 -1.975768,-2.27562 z m -0.03342,0.976903 c 0.402412,0.0137 0.726938,0.30627 0.884273,0.787824 h -1.83826 c 0.05502,-0.22335 0.136807,-0.405874 0.251149,-0.521397 0.185406,-0.187322 0.436489,-0.275496 0.702835,-0.266427 z" /></g><g
     inkscape:groupmode="layer"
     id="layer1"
     inkscape:label="flsun"
     transform="matrix(1.3445773,0,0,1.3445773,-11.844703,4.4234399)"><path
       style="fill:#ffffff;stroke-width:0.110488"
       d="m 51.800987,41.960344 -1.04964,-0.03529 -2.044035,-2.80637 c -2.345067,-3.219675 -2.171109,-3.056598 -2.116972,-1.984535 0.05109,1.01162 0.121992,1.017737 -0.960635,-0.08287 l -0.896641,-0.91153 -0.0017,-1.574459 -0.0017,-1.57446 h 0.916172 0.916172 l 2.315614,3.225244 c 1.273587,1.773883 2.723599,3.78596 3.222249,4.471282 0.498649,0.685323 0.871547,1.260044 0.828662,1.27716 -0.04288,0.01711 -0.55031,0.01524 -1.127612,-0.0042 z M 12.57761,37.465612 v -4.47478 h 3.756605 3.756605 v 1.04964 1.04964 h -2.817453 -2.817454 v 0.66293 0.66293 h 1.657326 1.657325 v 1.04964 1.04964 h -1.657325 -1.657326 v 1.71257 1.71257 H 13.516762 12.57761 Z m 8.286629,0 v -4.47478 h 0.939151 0.939152 v 3.42514 3.42514 h 2.099279 2.099279 v 1.04964 1.04964 h -3.03843 -3.038431 z m 6.960768,3.42514 v -1.04964 h 3.814219 3.814218 l 0.124779,-0.273861 0.12478,-0.273862 -0.103538,-0.361446 -0.103537,-0.361447 -2.868687,-0.05524 -2.868687,-0.05524 -0.238851,-0.136781 C 28.723975,37.867543 28.26551,36.900153 28.269387,35.684979 l 0.0024,-0.7606 0.225064,-0.497198 c 0.255827,-0.565157 0.681084,-1.052184 1.118079,-1.28048 l 0.298352,-0.155869 h 2.601964 2.601964 v 1.04964 1.04964 h -2.426858 -2.426856 l -0.114376,0.213713 c -0.158816,0.296751 -0.143058,0.840309 0.02849,0.98268 0.0911,0.07561 1.168412,0.130551 2.973175,0.15164 l 2.83031,0.03307 0.424343,0.341342 c 0.233388,0.187739 0.548642,0.560637 0.700564,0.828663 l 0.276221,0.487321 v 1.04964 1.04964 l -0.325905,0.588335 -0.325905,0.588336 -0.457221,0.267949 -0.457222,0.26795 h -3.995496 -3.995497 z m 11.546037,0.923928 c -0.398233,-0.224984 -0.844579,-0.694942 -1.087381,-1.144905 l -0.23848,-0.441953 -0.03322,-3.618495 -0.03322,-3.618495 h 0.941208 0.941206 l 3.31e-4,3.319933 c 2.99e-4,3.997828 -0.313097,3.530347 2.366677,3.530347 h 2.236393 l 0.132586,-0.132586 0.132586,-0.132586 0.0054,-1.165652 0.0054,-1.165653 0.931014,0.991844 0.931014,0.991844 -0.06293,0.444505 c -0.09657,0.682055 -0.566744,1.572124 -1.008634,1.909394 l -0.396892,0.302925 -2.771073,0.02719 -2.771074,0.02719 -0.220977,-0.124842 z m 11.251389,-5.36671 c -1.266007,-1.80546 -2.318403,-3.321913 -2.338659,-3.369896 -0.02026,-0.04798 1.036288,-0.08724 2.347878,-0.08724 h 2.384707 v 3.369896 c 0,1.853443 -0.02072,3.369896 -0.04605,3.369896 -0.02533,0 -1.081871,-1.477195 -2.347878,-3.282654 z M 26.541757,29.914298 c -0.848827,-0.113702 -1.147506,-0.447493 -0.733163,-0.81935 0.455653,-0.408931 2.510709,-0.734793 8.148519,-1.292082 7.257575,-0.717399 10.229853,-1.089185 11.143041,-1.393819 l 0.458239,-0.152867 -2.651721,0.04425 c -1.458447,0.02434 -3.546677,0.123013 -4.640512,0.219275 -1.093835,0.09626 -3.157206,0.275603 -4.585268,0.398534 -1.428063,0.122933 -3.093675,0.270854 -3.701361,0.328714 -4.590875,0.43712 -6.132105,0.376381 -6.132105,-0.241661 v -0.213086 l 0.414331,-0.174363 c 0.745062,-0.313546 3.765612,-0.736968 9.695356,-1.359102 4.507896,-0.472956 8.297967,-0.904219 8.673338,-0.986915 l 0.386709,-0.08519 -1.049639,-0.0746 C 40.574966,24.01305 34.83465,23.820812 33.263093,23.820524 l -1.246462,-2.28e-4 -0.06921,-0.180369 c -0.03807,-0.0992 -0.01691,-0.264114 0.04701,-0.366471 l 0.116224,-0.186104 -1.087885,-1.152743 -1.087886,-1.152743 -0.0053,-0.414332 -0.0053,-0.414331 h 2.430744 2.430745 v 0.28376 0.283758 l -1.048899,1.290701 -1.048898,1.2907 0.634567,0.07087 c 0.349012,0.03898 1.504663,0.07672 2.568114,0.08387 2.710748,0.01822 5.847724,0.197199 7.01859,0.400452 l 0.991817,0.172172 0.208707,0.20718 c 0.666186,0.661313 -0.275618,0.839592 -9.379242,1.775461 -5.473737,0.562709 -8.253344,0.904584 -8.148591,1.002226 0.04562,0.04252 0.629856,0.03159 1.298311,-0.02429 1.791799,-0.149782 6.034705,-0.520088 8.120896,-0.708762 7.912944,-0.715642 10.624277,-0.644865 10.333986,0.269759 -0.233345,0.735204 -2.424123,1.120123 -11.107405,1.951569 -5.077796,0.486212 -8.31255,0.910756 -8.209525,1.077454 l 0.06696,0.108341 5.949586,-0.06023 5.949586,-0.06023 v 0.150217 c 0,0.08262 -0.111869,0.211278 -0.248599,0.285909 l -0.248598,0.13569 -5.690152,0.0251 c -3.129584,0.01381 -5.944437,-0.009 -6.255228,-0.05059 z m 2.572282,-10.255731 c -0.04051,-0.04051 -0.07366,-0.711729 -0.07366,-1.491593 V 16.74904 h 3.204163 3.204163 v 1.491593 1.491593 h -3.130504 c -1.721778,0 -3.163651,-0.03315 -3.204163,-0.07366 z m 0,-3.42514 c -0.04051,-0.04051 -0.07366,-0.189671 -0.07366,-0.331465 v -0.257806 h 3.204163 3.204163 v 0.331465 0.331465 h -3.130504 c -1.721778,0 -3.163651,-0.03315 -3.204163,-0.07366 z m -0.05338,-1.335068 0.03496,-0.303843 h 3.148919 3.148919 l 0.03496,0.303843 0.03496,0.303843 h -3.21884 -3.218841 z m 0.01967,-0.856285 c -0.03498,-0.09115 -0.03498,-0.240312 0,-0.331465 l 0.0636,-0.165732 h 3.152387 3.152386 v 0.331465 0.331465 H 32.29632 29.143933 Z m 0.0337,-0.902322 c -0.04051,-0.04051 -0.07366,-0.189671 -0.07366,-0.331465 v -0.257806 h 3.204163 3.204163 v 0.331465 0.331465 h -3.130504 c -1.721778,0 -3.163651,-0.03315 -3.204163,-0.07366 z M 28.070528,11.761426 27.045431,11.435321 25.971249,10.634456 C 25.380448,10.193981 24.686818,9.6866656 24.429849,9.5070887 23.85232,9.1034964 23.843421,9.1535519 24.58183,8.6522099 l 0.61549,-0.4178871 0.126093,0.1064658 c 0.06935,0.058556 0.573572,0.6569207 1.12049,1.3296991 l 0.994395,1.2232333 0.276221,-0.04137 c 0.151922,-0.02275 0.922578,-0.273067 1.71257,-0.556256 l 1.436349,-0.5148885 1.823058,0.035403 1.823059,0.035403 1.258574,0.4653265 c 0.692216,0.255929 1.291474,0.465326 1.331684,0.465326 0.06056,0 1.347074,-1.5032639 2.007431,-2.3456449 l 0.178152,-0.2272606 0.678133,0.3728048 c 0.881002,0.4843337 0.912717,0.4222159 -0.869441,1.7029027 -1.459953,1.049146 -1.822504,1.237721 -3.168945,1.648278 l -0.573202,0.174781 -3.128159,-0.0105 -3.128158,-0.0105 z m 7.98562,-0.528344 0.441709,-0.144455 -1.101595,-0.373957 -1.101595,-0.373957 h -1.792706 -1.792705 l -0.972549,0.341155 c -0.534902,0.187634 -1.047128,0.368794 -1.138281,0.402577 -0.105784,0.0392 -0.0059,0.113698 0.276221,0.205938 l 0.441954,0.144515 3.148919,-0.02868 3.148919,-0.02868 z M 26.630996,9.1272028 C 26.07233,8.459772 25.61524,7.8835344 25.61524,7.8466748 c 0,-0.2055892 1.77741,-1.3650496 2.541233,-1.6577265 C 28.429931,6.0841662 28.690729,5.9663672 28.736024,5.927173 28.781314,5.887979 28.397847,5.5598473 27.883866,5.197992 27.369885,4.8361367 26.947498,4.5085944 26.945227,4.4701204 c -0.0077,-0.1307431 1.354884,-0.880268 1.439133,-0.7916253 0.04609,0.048488 0.408706,0.4809615 0.805823,0.961053 l 0.722032,0.8728936 2.022449,0.022235 c 1.112347,0.012229 2.184567,0.076016 2.382712,0.1417483 l 0.360263,0.1195138 0.634132,-0.7387647 C 35.660544,4.6508532 36.073882,4.1538847 36.230302,3.9527994 L 36.5147,3.5871898 37.197075,3.9936787 c 0.881238,0.5249506 0.975096,0.363796 -1.009957,1.7341127 l -0.440104,0.3038113 0.375666,0.1295182 c 0.616135,0.2124245 1.940393,0.9272762 2.416888,1.304667 L 38.98438,7.8180851 38.488375,8.444091 c -0.272802,0.3443034 -0.73272,0.8903128 -1.022041,1.2133545 L 36.940299,10.244794 35.643245,9.795556 34.346191,9.346318 h -1.783412 -1.783413 l -1.480583,0.4971977 c -0.814321,0.2734583 -1.51916,0.4971973 -1.566307,0.4971973 -0.04715,0 -0.542814,-0.5460794 -1.10148,-1.2135102 z M 28.985135,7.357527 V 7.0813061 L 28.7506,7.0478422 c -0.255973,-0.036522 -0.406513,0.2046711 -0.300376,0.4812592 0.03768,0.098203 0.166136,0.1572638 0.300376,0.1381104 L 28.985135,7.633748 Z M 35.89066,7.5232596 36.028205,7.357527 35.89066,7.1917945 c -0.07565,-0.091153 -0.19995,-0.1657326 -0.276221,-0.1657326 -0.07627,0 -0.200571,0.07458 -0.276221,0.1657326 l -0.137546,0.1657325 0.137546,0.1657326 c 0.07565,0.091153 0.199949,0.1657326 0.276221,0.1657326 0.07627,0 0.20057,-0.07458 0.276221,-0.1657326 z"
       id="path11649" /><path
       style="fill:#0000ff;stroke:#f9f3f3;stroke-width:0.162426;stroke-linecap:square;stroke-miterlimit:5.3;paint-order:stroke markers fill"
       d="m 52.893079,39.607425 c -0.492078,-0.656704 -3.073896,-4.32147 -4.399898,-6.245441 l -0.191381,-0.277686 0.10034,-0.01911 c 0.149127,-0.0284 2.242155,-0.07173 3.509467,-0.07265 l 1.108302,-8.04e-4 -0.01781,3.246281 c -0.0098,1.785454 -0.02655,3.289711 -0.03723,3.342794 l -0.01942,0.09651 z"
       id="path11651" /></g></svg>
